<svg width="14" height="19" viewBox="0 0 14 19" fill="none" xmlns="http://www.w3.org/2000/svg">
<path d="M0.333313 18.333C0.333313 16.5649 1.03569 14.8692 2.28593 13.619C3.53618 12.3687 5.23187 11.6663 6.99998 11.6663C8.76809 11.6663 10.4638 12.3687 11.714 13.619C12.9643 14.8692 13.6666 16.5649 13.6666 18.333H12C12 17.0069 11.4732 15.7352 10.5355 14.7975C9.59783 13.8598 8.32606 13.333 6.99998 13.333C5.6739 13.333 4.40213 13.8598 3.46445 14.7975C2.52676 15.7352 1.99998 17.0069 1.99998 18.333H0.333313ZM6.99998 10.833C4.23748 10.833 1.99998 8.59551 1.99998 5.83301C1.99998 3.07051 4.23748 0.833008 6.99998 0.833008C9.76248 0.833008 12 3.07051 12 5.83301C12 8.59551 9.76248 10.833 6.99998 10.833ZM6.99998 9.16634C8.84165 9.16634 10.3333 7.67467 10.3333 5.83301C10.3333 3.99134 8.84165 2.49967 6.99998 2.49967C5.15831 2.49967 3.66665 3.99134 3.66665 5.83301C3.66665 7.67467 5.15831 9.16634 6.99998 9.16634Z" fill="#666666"/>
</svg>
