<svg width="21" height="21" viewBox="0 0 21 21" fill="none" xmlns="http://www.w3.org/2000/svg">
<path d="M10.7441 1.46079C10.5874 1.39799 10.4126 1.39799 10.2559 1.46079L2.42287 4.59372L10.5 7.82379L18.5771 4.59372L10.7441 1.46079ZM19.6875 5.56366L11.1562 8.97616V19.3738L19.6875 15.9613V5.56497V5.56366ZM9.84375 19.3751V8.97485L1.3125 5.56366V15.9626L9.84375 19.3751ZM9.76894 0.241474C10.2382 0.0537859 10.7618 0.0537859 11.2311 0.241474L20.5879 3.98472C20.7095 4.03348 20.8138 4.11754 20.8872 4.22608C20.9607 4.33462 21 4.46267 21 4.59372V15.9626C20.9998 16.2249 20.9211 16.4811 20.774 16.6982C20.6268 16.9153 20.418 17.0833 20.1744 17.1806L10.7441 20.9527C10.5874 21.0155 10.4126 21.0155 10.2559 20.9527L0.826875 17.1806C0.58308 17.0835 0.373987 16.9156 0.226593 16.6984C0.0791985 16.4813 0.000270807 16.225 0 15.9626L0 4.59372C3.05024e-05 4.46267 0.0393012 4.33462 0.112753 4.22608C0.186205 4.11754 0.290473 4.03348 0.412125 3.98472L9.76894 0.241474Z" fill="#111111"/>
</svg>
