<svg width="12" height="10" viewBox="0 0 12 10" fill="none" xmlns="http://www.w3.org/2000/svg">
<mask id="path-1-inside-1_87_2114" fill="white">
<path d="M0.857143 4.14286H6V5H0.857143V4.14286ZM0 2H4.28571V2.85714H0V2Z"/>
</mask>
<path d="M0.857143 4.14286V3.14286H-0.142857V4.14286H0.857143ZM6 4.14286H7V3.14286H6V4.14286ZM6 5V6H7V5H6ZM0.857143 5H-0.142857V6H0.857143V5ZM0 2V1H-1V2H0ZM4.28571 2H5.28571V1H4.28571V2ZM4.28571 2.85714V3.85714H5.28571V2.85714H4.28571ZM0 2.85714H-1V3.85714H0V2.85714ZM0.857143 5.14286H6V3.14286H0.857143V5.14286ZM5 4.14286V5H7V4.14286H5ZM6 4H0.857143V6H6V4ZM1.85714 5V4.14286H-0.142857V5H1.85714ZM0 3H4.28571V1H0V3ZM3.28571 2V2.85714H5.28571V2H3.28571ZM4.28571 1.85714H0V3.85714H4.28571V1.85714ZM1 2.85714V2H-1V2.85714H1Z" fill="#333333" mask="url(#path-1-inside-1_87_2114)"/>
<path d="M2.76596 9.49901C2.76582 9.49901 2.76568 9.49901 2.76553 9.49901V9.09009L2.76596 9.49901ZM11.9644 4.82044L11.6205 4.96341V4.96302L11.9644 4.82044Z" stroke="#333333"/>
</svg>
