<svg width="50" height="50" viewBox="0 0 50 50" fill="none" xmlns="http://www.w3.org/2000/svg">
<g clip-path="url(#clip0_66_2049)">
<path d="M50 46.0938C50 48.252 48.252 50 46.0938 50H3.90625C1.74805 50 0 48.252 0 46.0938V3.90625C0 1.74805 1.74805 0 3.90625 0H46.0938C48.252 0 50 1.74805 50 3.90625V46.0938Z" fill="#333366"/>
<path d="M39.4531 37.4805L44.7656 12.5195H10.0195L4.7168 37.4805H39.4531Z" fill="white"/>
<path d="M10.7422 13.5059C10.7422 13.5059 30.0586 17.4707 30.4395 17.5391C34.873 18.3203 34.7363 19.1797 34.7363 19.1797C37.8418 19.1602 38.2324 19.2871 38.7695 19.7461C40.4004 21.1133 37.7441 25.1367 37.7441 25.1367C37.3633 25.4199 8.62305 36.5137 8.62305 36.5137H38.6914L43.6035 13.3984H10.7422V13.5059Z" fill="#333366"/>
<path d="M33.2324 20.9961C32.793 21.2109 31.6602 21.3281 31.1231 21.377C30.6055 21.416 30.4688 21.4746 30.459 21.6699C30.4492 21.8457 30.5371 21.9434 31.2695 21.9434C32.959 21.9434 35.9961 21.3086 36.9141 21.6016C37.4023 21.7578 37.0117 22.6172 36.6113 23.75C36.4551 24.1895 36.7578 24.1602 36.9336 23.9648C37.1094 23.7695 37.9004 22.334 37.9883 21.5918C38.1055 20.5469 37.2168 20.3906 35.9766 20.3906H34.0137C33.9063 20.3906 33.8281 20.459 33.7012 20.625C33.6035 20.7617 33.5156 20.8496 33.2324 20.9961Z" fill="#333366"/>
<path d="M9.62891 18.7402L5.85938 36.5137C5.85938 36.5137 17.4219 30.8398 18.8281 30.1172C21.7285 28.6328 25.7324 26.6601 29.4336 25.4004C30.1367 25.1562 33.1641 24.2285 34.9219 23.916C35.6055 23.7891 35.8887 23.6816 35.8887 23.5449C35.8594 23.1836 35.1758 23.1543 34.0137 23.2129C30.4687 23.3789 23.6816 26.084 21.7285 27.1094L19.5215 20.2734H33.623C34.2578 18.4961 25.2734 18.75 25 18.7305H9.62891V18.7402Z" fill="#333366"/>
<path d="M45.2832 34.7168C45.2832 35.7715 44.4531 36.6016 43.3789 36.6016C42.3145 36.6016 41.4551 35.7715 41.4551 34.7168C41.4551 33.6816 42.3047 32.8516 43.3789 32.8516C44.4531 32.8516 45.2832 33.6816 45.2832 34.7168ZM41.9336 34.7168C41.9336 35.5469 42.5488 36.2012 43.3887 36.2012C44.209 36.2012 44.8047 35.5469 44.8047 34.7266C44.8047 33.8965 44.1992 33.2227 43.3691 33.2227C42.5488 33.2324 41.9336 33.8965 41.9336 34.7168ZM43.0762 35.6934H42.6465V33.8281C42.8125 33.7988 43.0566 33.7695 43.3594 33.7695C43.7109 33.7695 43.8672 33.8281 44.0039 33.9063C44.1016 33.9844 44.1895 34.1309 44.1895 34.3164C44.1895 34.5215 44.0332 34.6777 43.7988 34.7461V34.7656C43.9844 34.834 44.082 34.9707 44.1406 35.2246C44.1992 35.5078 44.2285 35.625 44.2773 35.6934H43.8086C43.75 35.625 43.7207 35.459 43.6621 35.2344C43.6328 35.0293 43.5156 34.9414 43.2715 34.9414H43.0664V35.6934H43.0762ZM43.0957 34.6387H43.3008C43.5352 34.6387 43.7305 34.5605 43.7305 34.3652C43.7305 34.1992 43.6035 34.082 43.3301 34.082C43.2129 34.082 43.1348 34.0918 43.0957 34.1016V34.6387Z" fill="white"/>
</g>
<defs>
<clipPath id="clip0_66_2049">
<rect width="50" height="50" fill="white"/>
</clipPath>
</defs>
</svg>
