<svg width="313" height="46" viewBox="0 0 313 46" fill="none" xmlns="http://www.w3.org/2000/svg">
<g clip-path="url(#clip0_16_505)">
<path d="M183.784 23.3921C183.703 19.7716 184.408 16.4529 185.758 13.2749C186.584 11.3641 187.692 9.65445 189.021 8.04535C190.471 6.29546 192.183 4.84728 194.117 3.66057C196.615 2.11182 199.334 1.2067 202.215 0.703858C204.068 0.382039 205.941 0.281471 207.794 0.402153C211.5 0.643517 215.025 1.48829 218.268 3.41921C222.176 5.75239 224.936 9.03092 226.688 13.1945C228.36 17.177 228.944 21.3606 228.602 25.6649C228.38 28.4406 227.756 31.1359 226.608 33.6702C224.11 39.2618 219.94 43.0432 214.059 44.8735C211.641 45.6177 209.184 45.9597 206.646 45.9798C204.189 45.9999 201.771 45.7987 199.374 45.1551C195.95 44.25 192.909 42.6208 190.35 40.1669C188.094 37.9946 186.443 35.4 185.355 32.4634C184.247 29.5067 183.643 26.4293 183.784 23.3921Z" fill="#4BBCAA"/>
<path d="M280.59 22.9899C280.59 16.4932 280.59 9.99647 280.59 3.49975C280.59 2.91645 280.631 2.35327 280.671 1.76997C280.691 1.52861 280.953 1.26713 281.175 1.26713C281.678 1.24701 282.202 1.20679 282.705 1.20679C286.19 1.20679 289.655 1.20679 293.14 1.20679C298.88 1.20679 304.601 1.20679 310.342 1.20679C310.926 1.20679 311.51 1.20679 312.074 1.2269C312.638 1.24701 312.88 1.46827 312.88 2.07168C312.88 3.88191 312.88 5.67203 312.859 7.48226C312.859 7.82419 312.577 8.08567 312.235 8.08567C311.651 8.10578 311.087 8.1259 310.503 8.1259C303.614 8.1259 296.725 8.1259 289.836 8.1259C289.252 8.1259 288.688 8.16612 288.104 8.22646C288.003 8.22646 287.882 8.36726 287.822 8.48794C287.761 8.58851 287.741 8.72931 287.721 8.84999C287.701 9.29249 287.701 9.7551 287.701 10.1976C287.701 12.7118 287.701 15.2059 287.701 17.7201C287.701 18.2431 287.741 18.7459 287.761 19.2689C287.781 19.5102 288.023 19.7717 288.245 19.7918C288.889 19.8119 289.534 19.8522 290.178 19.8522C296.624 19.8522 303.07 19.8522 309.496 19.8522C310.08 19.8522 310.644 19.8723 311.228 19.9125C311.47 19.9326 311.731 20.174 311.752 20.3952C311.772 20.5159 311.792 20.6567 311.792 20.7774C311.792 22.3262 311.812 23.8548 311.792 25.4036C311.792 26.188 311.57 26.369 310.724 26.3891C310.201 26.4092 309.697 26.3891 309.173 26.3891C302.869 26.3891 296.544 26.3891 290.239 26.3891C289.715 26.3891 289.212 26.3891 288.688 26.3891C287.902 26.4092 287.721 26.6104 287.701 27.4753C287.701 27.6764 287.701 27.8574 287.701 28.0586C287.701 30.8946 287.701 33.7105 287.701 36.5465C287.701 36.9287 287.741 37.3109 287.761 37.693C287.781 37.9143 288.043 38.1556 288.265 38.1757C288.466 38.1959 288.648 38.216 288.849 38.216C289.373 38.216 289.876 38.216 290.4 38.216C297.108 38.216 303.795 38.216 310.503 38.216C311.147 38.216 311.792 38.2361 312.436 38.2763C312.678 38.2763 312.92 38.5378 312.94 38.7792C312.94 38.8395 312.98 38.8998 312.98 38.9602C312.98 40.7704 312.98 42.5605 312.98 44.3708C312.98 44.8334 312.718 45.115 312.295 45.1351C311.711 45.1552 311.127 45.1552 310.563 45.1552C303.795 45.1552 297.047 45.1552 290.279 45.1552C287.701 45.1552 285.123 45.1552 282.544 45.1552C282.101 45.1552 281.638 45.1351 281.195 45.0949C280.973 45.0747 280.691 44.8334 280.671 44.6121C280.631 44.4311 280.59 44.23 280.59 44.0489C280.57 43.526 280.59 43.0231 280.59 42.5002C280.59 35.9834 280.59 29.4866 280.59 22.9899Z" fill="#4BBCAA"/>
<path d="M82.0623 23.0904C82.0623 29.4664 82.0623 35.8223 82.0623 42.1984C82.0623 42.6409 82.0623 43.1035 82.0623 43.546C82.0824 44.9741 81.8609 45.135 80.5717 45.135C79.2222 45.135 77.8726 45.135 76.523 45.135C76.3216 45.135 76.1403 45.135 75.9389 45.1148C75.395 45.0947 75.1331 44.8333 75.113 44.2701C75.0929 43.7471 75.0929 43.2443 75.0929 42.7213C75.0929 38.2159 75.0929 33.7104 75.0929 29.2049C75.0929 28.6216 75.0526 28.0584 75.0324 27.4751C75.0324 27.274 74.7303 26.9924 74.5289 26.9522C74.408 26.9321 74.267 26.912 74.1462 26.912C73.7634 26.912 73.3807 26.8918 72.9779 26.8918C66.6731 26.8918 60.3483 26.8918 54.0436 26.8918C53.6004 26.8918 53.1371 26.8919 52.694 26.912C52.2307 26.9321 51.9487 27.1936 51.9286 27.5958C51.9084 28.1791 51.8883 28.7624 51.8883 29.3256C51.8883 33.6903 51.8883 38.0751 51.8883 42.4397C51.8883 45.2959 52.0897 45.0746 49.31 45.0746C48.0209 45.0746 46.7317 45.0545 45.4426 45.0344C45.1404 45.0344 44.798 44.7327 44.7779 44.431C44.7376 43.8477 44.7174 43.2845 44.7174 42.7012C44.7174 37.4918 44.7174 32.2823 44.7174 27.0729C44.7174 19.4096 44.7174 11.7664 44.7174 4.10305C44.7174 3.66054 44.7174 3.19793 44.7174 2.75543C44.6973 1.18656 44.939 1.12622 46.3691 1.12622C47.9806 1.12622 49.592 1.12622 51.2034 1.14633C51.5459 1.14633 51.8279 1.42793 51.848 1.74974C51.8681 2.33304 51.8883 2.89622 51.8883 3.47952C51.8883 8.30681 51.8883 13.1341 51.8883 17.9413C51.8883 18.5246 51.9084 19.1079 51.9286 19.671C51.9487 19.9727 52.2509 20.2342 52.5731 20.2543C52.8954 20.2744 53.2177 20.2946 53.54 20.2946C60.1066 20.2946 66.6731 20.2946 73.2397 20.2946C73.3001 20.2946 73.3606 20.2946 73.4412 20.2946C74.972 20.2745 75.0727 20.194 75.0727 18.6452C75.0727 13.5565 75.0727 8.48783 75.0727 3.39907C75.0727 2.81577 75.0929 2.25259 75.1332 1.66929C75.1533 1.42793 75.395 1.18656 75.6166 1.16645C75.7374 1.14633 75.8784 1.12622 75.9993 1.12622C77.7316 1.12622 79.484 1.12622 81.2163 1.12622C81.7803 1.12622 82.0019 1.3877 82.022 1.971C82.0422 2.55429 82.0422 3.13759 82.0422 3.70077C82.0623 10.2377 82.0623 16.654 82.0623 23.0904Z" fill="#4BBCAA"/>
<path d="M131.412 45.1148C130.385 45.1148 129.358 45.1148 128.31 45.1148C127.887 45.1148 127.585 44.8735 127.404 44.5114C127.102 43.8678 126.8 43.2442 126.497 42.6006C125.672 40.7904 124.846 38.96 124.04 37.1498C123.939 36.9084 123.818 36.6872 123.698 36.4659C123.536 36.1642 123.295 35.9631 122.932 35.943C122.489 35.9229 122.026 35.9229 121.583 35.9229C114.875 35.9229 108.188 35.9229 101.48 35.9229C101.037 35.9229 100.574 35.943 100.13 35.9631C99.8484 35.9832 99.647 36.124 99.5261 36.3654C99.2441 36.9487 98.9621 37.5118 98.7003 38.1153C97.9147 39.8853 97.1291 41.6352 96.3436 43.4052C96.1623 43.8074 95.9609 44.2097 95.7594 44.612C95.5983 44.9137 95.3767 45.1349 95.0141 45.1349C92.9596 45.1349 90.8849 45.1349 88.8303 45.1349C88.508 45.1349 88.2663 44.7528 88.3871 44.4511C88.4274 44.3304 88.4677 44.2097 88.5281 44.089C88.6691 43.7873 88.79 43.5057 88.931 43.204C91.5093 37.4515 94.0876 31.699 96.6659 25.9465C98.5794 21.6623 100.533 17.378 102.447 13.0938C103.877 9.93598 105.287 6.75801 106.697 3.58005C106.939 3.0571 107.18 2.53414 107.422 1.99107C107.644 1.46811 107.986 1.18652 108.59 1.18652C110.585 1.20664 112.579 1.20664 114.573 1.18652C115.157 1.18652 115.52 1.448 115.761 1.97096C116.466 3.55994 117.191 5.12881 117.896 6.71779C119.286 9.83541 120.676 12.953 122.066 16.0505C124.282 20.9784 126.497 25.9062 128.713 30.8341C130.586 34.9976 132.46 39.1612 134.333 43.3247C134.514 43.727 134.696 44.1494 134.857 44.5718C134.957 44.8332 134.776 45.0947 134.474 45.0947C133.95 45.1148 133.447 45.1148 132.923 45.1148C132.44 45.1349 131.936 45.1349 131.412 45.1148C131.412 45.1349 131.412 45.1349 131.412 45.1148Z" fill="#4BBCAA"/>
<path d="M152.461 1.20673C155.624 1.20673 158.766 1.18662 161.929 1.20673C164.003 1.22684 166.038 1.56878 167.971 2.29287C172.524 4.00253 175.444 7.22072 176.693 11.8871C177.217 13.8784 177.398 15.9299 176.975 18.0017C176.754 19.0677 176.572 20.1337 176.17 21.1595C175.122 23.9151 173.289 25.9868 170.731 27.435C169.261 28.2596 167.689 28.8027 166.018 29.1044C165.776 29.1446 165.635 29.5268 165.776 29.7279C166.138 30.1906 166.481 30.6532 166.864 31.0756C168.415 32.8053 169.966 34.515 171.517 36.2247C173.712 38.6584 175.908 41.1123 178.083 43.5662C178.325 43.8477 178.506 44.2098 178.687 44.5316C178.808 44.7327 178.587 45.0747 178.345 45.0948C177.7 45.1149 177.056 45.135 176.411 45.135C174.739 45.135 173.068 45.135 171.396 45.1149C171.053 45.1149 170.771 44.9741 170.55 44.7327C170.429 44.592 170.308 44.431 170.167 44.2902C167.649 41.4542 165.131 38.5981 162.613 35.762C161.344 34.3139 160.075 32.8456 158.806 31.3974C158.464 31.0152 158.122 30.6331 157.759 30.2509C157.537 30.0095 157.235 29.8687 156.893 29.8687C156.45 29.8486 155.986 29.8486 155.543 29.8486C153.67 29.8486 151.817 29.8486 149.944 29.8486C149.561 29.8486 149.178 29.8888 148.795 29.9291C148.554 29.9492 148.292 30.2107 148.272 30.4319C148.252 30.9348 148.211 31.4577 148.211 31.9606C148.211 35.6213 148.211 39.3021 148.211 42.9627C148.211 43.4857 148.191 43.9885 148.171 44.5115C148.151 44.8333 147.869 45.0948 147.526 45.0948C145.653 45.0948 143.8 45.0948 141.927 45.0948C141.484 45.0948 141.242 44.8132 141.222 44.3506C141.202 43.9684 141.202 43.5863 141.202 43.184C141.202 37.2706 141.202 31.3571 141.202 25.4236C141.202 24.9208 141.242 24.3978 141.302 23.895C141.322 23.7944 141.463 23.6536 141.564 23.6335C141.886 23.5732 142.209 23.5329 142.511 23.5329C144.505 23.5329 146.499 23.5329 148.493 23.5329C152.743 23.5329 156.994 23.5128 161.244 23.5329C162.674 23.5329 164.084 23.3318 165.393 22.7887C168.092 21.6825 169.522 19.5906 169.825 16.7546C169.966 15.407 169.905 14.0594 169.422 12.752C168.253 9.67459 165.977 8.04538 162.734 7.70345C161.969 7.623 161.183 7.66322 160.418 7.66322C154.818 7.66322 149.218 7.66322 143.599 7.66322C143.155 7.66322 142.692 7.66322 142.249 7.66322C141.383 7.64311 141.181 7.46209 141.161 6.67765C141.141 5.1289 141.161 3.58015 141.161 2.05151C141.161 1.93082 141.202 1.79003 141.222 1.66935C141.242 1.4481 141.504 1.22684 141.766 1.20673C142.289 1.18662 142.793 1.1665 143.317 1.1665C146.338 1.1665 149.38 1.1665 152.401 1.1665C152.461 1.18662 152.461 1.18662 152.461 1.20673Z" fill="#4BBCAA"/>
<path d="M18.6525 45.9798C17.8065 45.9798 16.9807 45.9999 16.1347 45.9798C13.4758 45.8993 10.9177 45.2959 8.46023 44.2701C5.84166 43.184 3.68637 41.4944 1.9138 39.302C1.26923 38.4975 0.725372 37.6125 0.181515 36.7476C-0.120628 36.285 -0.0601992 36.0637 0.362801 35.7822C1.43037 35.0581 2.4778 34.334 3.56552 33.63C5.11652 32.6243 4.91509 32.4634 6.10352 34.0524C8.29909 36.9689 11.2802 38.5981 14.7851 39.4026C16.7591 39.8451 18.7532 39.9055 20.7474 39.7446C22.3588 39.6038 23.93 39.2819 25.4205 38.6584C26.5082 38.1958 27.455 37.5723 28.2808 36.7275C29.2678 35.7017 29.7714 34.4748 29.8721 33.0869C30.0332 30.9146 29.1671 29.205 27.3744 27.978C26.5284 27.3947 25.5817 26.9724 24.5947 26.6505C22.943 26.1075 21.251 25.7655 19.5187 25.5041C17.2828 25.1822 15.0671 24.9006 12.8715 24.3375C10.8774 23.8346 8.90338 23.2111 7.09052 22.2054C5.55966 21.3405 4.25037 20.2343 3.26337 18.7459C2.41737 17.3982 1.93394 15.9299 1.7728 14.3812C1.59152 12.7319 1.57137 11.0423 2.0548 9.41311C2.4778 7.90458 3.16266 6.53685 4.21009 5.37026C5.5798 3.80139 7.23152 2.61469 9.16523 1.81014C11.8845 0.683771 14.6844 0.0602473 17.6051 -9.3787e-05C18.4511 -0.0202075 19.277 -9.3787e-05 20.123 -9.3787e-05C22.1372 -9.3787e-05 24.1112 0.321725 26.0248 0.864795C28.8045 1.64923 31.2821 2.95662 33.2561 5.10878C33.7798 5.67197 34.2028 6.3156 34.6661 6.93913C34.8071 7.12015 34.7265 7.4822 34.5251 7.62299C33.6791 8.20629 32.8331 8.78959 31.967 9.35277C31.7051 9.53379 31.4231 9.71482 31.1612 9.87573C29.5297 10.982 29.8721 10.9619 28.5225 9.63436C27.032 8.14595 25.1788 7.22072 23.1645 6.67765C20.264 5.8731 17.3231 5.85299 14.3822 6.57708C13.2139 6.8989 12.0859 7.38163 11.0788 8.08561C9.97095 8.84993 9.20552 9.87573 8.86309 11.163C8.19837 13.6571 8.94366 15.2863 10.7968 16.5334C11.5421 17.0161 12.3881 17.3982 13.2341 17.6999C14.3822 18.1022 15.5707 18.4039 16.7792 18.585C18.431 18.8263 20.0827 19.0878 21.7344 19.3694C24.212 19.7918 26.6492 20.3751 28.9858 21.3003C31.0605 22.125 32.8532 23.3318 34.3438 25.0012C35.0891 25.8259 35.6732 26.7511 36.0358 27.7769C37.325 31.3169 37.2645 34.8569 35.633 38.2763C34.6661 40.2876 33.1151 41.8364 31.2217 43.0231C29.1268 44.3506 26.8104 45.0948 24.4134 45.6177C22.4998 45.9999 20.5862 45.9999 18.6525 45.9798Z" fill="#4BBCAA"/>
<path d="M234.584 1.20669C235.672 1.20669 236.78 1.20669 237.867 1.20669C238.311 1.20669 238.572 1.42794 238.734 1.85033C239.64 4.18351 240.567 6.5167 241.473 8.84989C244.716 17.0965 247.959 25.3632 251.222 33.6098C251.565 34.4948 251.947 35.4 252.31 36.285C252.33 36.3252 252.411 36.3855 252.451 36.3855C252.511 36.3855 252.572 36.3252 252.612 36.285C252.854 35.762 253.136 35.2592 253.337 34.7161C256.58 26.5298 259.803 18.3435 263.026 10.1372C264.053 7.50227 265.101 4.86738 266.128 2.2526C266.229 2.01124 266.309 1.76987 266.47 1.56874C266.571 1.42794 266.772 1.34748 266.934 1.26703C267.054 1.2268 267.195 1.2268 267.316 1.2268C269.451 1.2268 271.566 1.2268 273.702 1.24692C274.064 1.24692 274.225 1.54862 274.084 1.93078C274.004 2.17215 273.903 2.41351 273.802 2.65487C272.694 5.32999 271.587 8.00512 270.499 10.6802C267.578 17.7603 264.678 24.8202 261.757 31.9002C260.186 35.7017 258.615 39.5031 257.023 43.3046C256.097 45.5171 256.419 45.2758 254.123 45.2758C252.632 45.2758 251.162 45.2557 249.671 45.2758C249.087 45.2758 248.704 45.0344 248.483 44.4913C247.818 42.8822 247.153 41.2933 246.489 39.6842C244.152 34.0523 241.815 28.4004 239.479 22.7686C237.565 18.1424 235.632 13.4962 233.718 8.87C232.872 6.85863 232.046 4.82715 231.22 2.81578C231.079 2.45374 230.958 2.09169 230.858 1.72964C230.797 1.54862 230.958 1.30726 231.12 1.30726C232.268 1.28714 233.436 1.26703 234.584 1.2268C234.584 1.18657 234.584 1.20669 234.584 1.20669Z" fill="#4BBCAA"/>
<path d="M153.69 36.6472C153.489 36.627 153.368 36.5064 153.388 36.3052C153.408 36.1041 153.549 35.9834 153.75 35.9834C153.952 35.9834 154.053 36.1242 154.032 36.3253C153.912 36.4259 153.811 36.5466 153.69 36.6472Z" fill="#A89D9D"/>
<path d="M153.69 36.6471C153.711 36.446 153.791 36.2851 154.033 36.3253C154.053 36.5667 153.952 36.6873 153.69 36.6471Z" fill="#485757"/>
<path d="M206.283 39.5033C204.813 39.4429 203.403 39.4228 201.993 39.101C198.004 38.1355 195.043 35.8426 193.029 32.3227C192.082 30.6935 191.518 28.9436 191.116 27.0931C190.693 25.122 190.652 23.1307 190.834 21.1395C191.075 18.6253 191.72 16.2116 192.989 13.9991C194.842 10.7809 197.521 8.66899 201.066 7.54262C203.785 6.67773 208.781 6.67773 211.54 7.64319C214.904 8.85001 217.483 10.9217 219.255 13.9991C220.343 15.9099 221.068 17.9615 221.41 20.1539C221.612 21.4412 221.713 22.7083 221.692 23.9956C221.672 26.0673 221.29 28.0988 220.605 30.0297C218.913 34.8168 215.589 37.8338 210.634 39.0608C209.164 39.4228 207.693 39.4429 206.283 39.5033Z" fill="white"/>
<path d="M111.511 29.4264C108.993 29.4264 106.496 29.4264 103.978 29.4264C103.655 29.4264 103.333 29.3861 103.011 29.366C102.769 29.3459 102.608 29.0442 102.709 28.7827C102.89 28.3 103.071 27.8173 103.273 27.3546C104.32 25.0013 105.368 22.6682 106.415 20.3149C107.966 16.8553 109.497 13.3957 111.048 9.93619C111.149 9.71494 111.29 9.49369 111.431 9.27244C111.451 9.23221 111.551 9.17187 111.592 9.19198C111.692 9.2121 111.833 9.25232 111.874 9.33278C112.015 9.55403 112.115 9.77528 112.236 10.0166C113.364 12.5309 114.492 15.0652 115.6 17.5794C117.03 20.7976 118.481 24.0359 119.911 27.2742C120.173 27.8575 120.374 28.4609 120.575 29.0643C120.596 29.1246 120.475 29.3258 120.394 29.3459C120.011 29.4062 119.629 29.4465 119.246 29.4465C116.668 29.4264 114.089 29.4264 111.511 29.4264Z" fill="white"/>
</g>
<defs>
<clipPath id="clip0_16_505">
<rect width="313" height="46" fill="white"/>
</clipPath>
</defs>
</svg>
