<svg width="12" height="16" viewBox="0 0 12 16" fill="none" xmlns="http://www.w3.org/2000/svg">
<path d="M1.71429 0C1.25963 0 0.823594 0.187301 0.502103 0.520699C0.180612 0.854097 0 1.30628 0 1.77778V2.66667C0 7.11111 1.71429 9.77778 6 9.77778V7.11111L10.2857 10.6667L6 14.2222V11.5556C3.27429 11.5556 1.27714 10.8 0 9.17333V14.2222C0 14.6937 0.180612 15.1459 0.502103 15.4793C0.823594 15.8127 1.25963 16 1.71429 16H10.2857C10.7404 16 11.1764 15.8127 11.4979 15.4793C11.8194 15.1459 12 14.6937 12 14.2222V1.77778C12 1.30628 11.8194 0.854097 11.4979 0.520699C11.1764 0.187301 10.7404 0 10.2857 0H1.71429Z" fill="#4BBCAA"/>
</svg>
