<svg width="21" height="21" viewBox="0 0 21 21" fill="none" xmlns="http://www.w3.org/2000/svg">
<path d="M10.4501 0.159241C12.0881 0.159241 13.6474 0.535491 15.0456 1.20662C15.2653 1.30549 15.4858 1.42362 15.7045 1.54262L14.7455 2.39137L13.3079 0.910866L10.8299 3.08349L9.37125 1.52249L4.81513 5.57199L7.73238 8.75262L6.59313 9.73962L9.47188 12.9202L8.33263 13.9072L12.4486 18.431L14.8855 16.2181L17.0039 18.5894C16.5839 18.9052 16.1245 19.222 15.6258 19.4985C14.0506 20.3801 12.2754 20.8423 10.4703 20.8407C4.69525 20.8399 3.41964e-06 16.198 3.41964e-06 10.4912C-0.0201216 4.82124 4.67513 0.159241 10.4501 0.159241ZM8.53125 9.85949L11.0294 7.64662L13.2676 10.1159L10.7695 12.3287L8.53125 9.85949ZM10.3101 14.126L12.7881 11.8947L15.0456 14.3631L12.5475 16.576L10.3101 14.126ZM6.755 5.65249L9.25225 3.43962L11.4896 5.90887L8.99238 8.12087L6.755 5.65249ZM11.3295 4.46687L13.188 2.80787L14.8671 4.64449L13.0086 6.32362L11.3295 4.46687ZM14.6475 12.0715L16.5051 10.4125L18.1834 12.2684L16.3249 13.9291L14.6475 12.0715ZM16.2855 15.8051L18.144 14.1452L19.8214 15.9827L17.9638 17.661L16.2855 15.8051ZM17.045 7.27124L18.2831 6.16524L19.4023 7.39024L18.1633 8.49624L17.045 7.27124ZM15.4464 3.61724L16.6854 2.49199L17.8054 3.73624L16.5646 4.84224L15.4464 3.61724ZM18.6226 10.9261L19.8616 9.82012L21.0009 11.0451L19.7426 12.1511L18.6226 10.9261ZM13.0489 8.18037L14.9074 6.52137L16.5856 8.35799L14.7271 10.0179L13.0489 8.18037Z" fill="black"/>
</svg>
