<svg width="21" height="21" viewBox="0 0 21 21" fill="none" xmlns="http://www.w3.org/2000/svg">
<g clip-path="url(#clip0_569_2278)">
<path d="M10.4501 0.159241C12.0881 0.159241 13.6473 0.535491 15.0456 1.20662C15.2652 1.30549 15.4857 1.42362 15.7044 1.54262L14.7454 2.39137L13.3078 0.910866L10.8298 3.08349L9.37119 1.52249L4.81507 5.57199L7.73232 8.75262L6.59307 9.73962L9.47182 12.9202L8.33257 13.9072L12.4486 18.431L14.8854 16.2181L17.0038 18.5894C16.5838 18.9052 16.1244 19.222 15.6257 19.4985C14.0505 20.3801 12.2753 20.8423 10.4702 20.8407C4.69519 20.8399 -5.76155e-05 16.198 -5.76155e-05 10.4912C-0.0201826 4.82124 4.67507 0.159241 10.4501 0.159241ZM8.53119 9.85949L11.0293 7.64662L13.2676 10.1159L10.7694 12.3287L8.53119 9.85949ZM10.3101 14.126L12.7881 11.8947L15.0456 14.3631L12.5474 16.576L10.3101 14.126ZM6.75494 5.65249L9.25219 3.43962L11.4896 5.90887L8.99232 8.12087L6.75494 5.65249ZM11.3294 4.46687L13.1879 2.80787L14.8671 4.64449L13.0086 6.32362L11.3294 4.46687ZM14.6474 12.0715L16.5051 10.4125L18.1833 12.2684L16.3248 13.9291L14.6474 12.0715ZM16.2854 15.8051L18.1439 14.1452L19.8213 15.9827L17.9637 17.661L16.2854 15.8051ZM17.0449 7.27124L18.2831 6.16524L19.4022 7.39024L18.1632 8.49624L17.0449 7.27124ZM15.4463 3.61724L16.6853 2.49199L17.8053 3.73624L16.5646 4.84224L15.4463 3.61724ZM18.6226 10.9261L19.8616 9.82012L21.0008 11.0451L19.7426 12.1511L18.6226 10.9261ZM13.0488 8.18037L14.9073 6.52137L16.5856 8.35799L14.7271 10.0179L13.0488 8.18037Z" fill="#4BBCAA"/>
</g>
<defs>
<clipPath id="clip0_569_2278">
<rect width="21" height="21" fill="white"/>
</clipPath>
</defs>
</svg>
